<svg xmlns="http://www.w3.org/2000/svg" viewBox="0 0 464.67 485.47"><defs><style>.cls-1{fill:#ffe452;}.cls-2{fill:#194071;}.cls-3{fill:#64c2a4;}.cls-4{fill:#24b68d;}.cls-5{fill:#00926a;}.cls-6{fill:#fff;}.cls-7{fill:#9fc3cf;}.cls-15,.cls-16,.cls-8{fill:#801ab3;}.cls-17,.cls-9{fill:#48c7f4;}.cls-10{fill:#ffd151;opacity:0.61;}.cls-11{fill:#98d5d1;}.cls-12{fill:#a2ddf8;}.cls-13{fill:#10325d;}.cls-14{fill:#00b1e1;}.cls-15{font-size:140px;}.cls-15,.cls-16,.cls-17{font-family:Iceland-Regular, Iceland;}.cls-16{font-size:71.14px;}.cls-17{font-size:32.23px;}</style></defs><g id="Слой_2" data-name="Слой 2"><g id="OBJECTS"><circle class="cls-1" cx="85.33" cy="26" r="4"/><circle class="cls-1" cx="32.67" cy="52" r="2"/><path class="cls-1" d="M74.67,96.67A6.67,6.67,0,1,1,68,90,6.67,6.67,0,0,1,74.67,96.67Z"/><circle class="cls-1" cx="4.67" cy="140.67" r="4.67"/><circle class="cls-1" cx="48.67" cy="224.67" r="3.33"/><circle class="cls-1" cx="8.67" cy="284.67" r="4.67"/><path class="cls-1" d="M53.33,346a2.67,2.67,0,1,1-2.66-2.67A2.67,2.67,0,0,1,53.33,346Z"/><path class="cls-1" d="M109.33,242.67a3.33,3.33,0,1,1-3.33-3.34A3.33,3.33,0,0,1,109.33,242.67Z"/><path class="cls-1" d="M20,396.67A2.67,2.67,0,1,1,17.33,394,2.66,2.66,0,0,1,20,396.67Z"/><circle class="cls-1" cx="370" cy="208.67" r="4"/><path class="cls-1" d="M451.33,205.33a2.67,2.67,0,1,1-2.66-2.66A2.66,2.66,0,0,1,451.33,205.33Z"/><circle class="cls-1" cx="428.67" cy="284.67" r="7.33"/><path class="cls-1" d="M463.33,342a2.67,2.67,0,1,1-2.66-2.67A2.67,2.67,0,0,1,463.33,342Z"/><circle class="cls-1" cx="462.67" cy="412" r="2"/><path class="cls-1" d="M456,100.67A4.67,4.67,0,1,1,451.33,96,4.67,4.67,0,0,1,456,100.67Z"/><path class="cls-1" d="M362,55.33a2.67,2.67,0,1,1-2.67-2.66A2.66,2.66,0,0,1,362,55.33Z"/><path class="cls-1" d="M430.67,10.67A6.67,6.67,0,1,1,424,4,6.67,6.67,0,0,1,430.67,10.67Z"/><circle class="cls-1" cx="178.67" cy="8.67" r="6"/><circle class="cls-1" cx="278.67" cy="4" r="4"/><path class="cls-2" d="M219.48,17c-.42-2.86-5.33-2.19-5,.69.37,3.8.9,7.59,1.21,11.4.29,3.51-.45,7.17.29,10.59a2.51,2.51,0,0,0,4.55.6C224.07,34,220.45,23.65,219.48,17Z"/><path class="cls-3" d="M113,110.33S119,45,209.33,28.67,342.67,71.67,343.67,91,113,110.33,113,110.33Z"/><path class="cls-4" d="M343.67,91c-.38-7.23-6.64-20.07-19.05-32.45l-.43.28q-3.88,2.28-7.95,4.24c-4.21,2.2-8.22,4.72-12.58,6.64a53.06,53.06,0,0,1-10,3c-2.43.56-4.77,1.35-7.23,1.78-2.8.49-5.63.92-8.45,1.34-3.06.45-6,1.4-9.06,1.77-2.56.31-5.05,1-7.62,1.13-3.17.17-6.3.52-9.48.5-5.83,0-11.66,0-17.49,0a141.09,141.09,0,0,1-15.89-1.11c-3.38-.36-6.7-1-10-1.64-2.29-.41-4.45-1.22-6.71-1.63a73.88,73.88,0,0,1-8.6-1.58c-2.25-.68-4.36-1.69-6.6-2.42-4.52-1.46-9-2.55-13.21-4.86a32.84,32.84,0,0,1-12.12-12,50.8,50.8,0,0,1-3.46-6.57C116.47,72.68,113,110.33,113,110.33S344.67,110.33,343.67,91Z"/><path class="cls-5" d="M201,85.67l-.08.33c-.77-.06,0-5.47.12-6.09,1.72-8.86,9.62-15.46,18.22-17.32l.63-.12A26.36,26.36,0,0,1,244.08,71a18.85,18.85,0,0,1,3.13,5.36,10.41,10.41,0,0,1,1.17,5.12c-.25,2.45-2.59,4.47-4.43,5.82-3.26,2.38-6.76,3.5-10.5,4.91a50,50,0,0,1-11.84,2.59A48.5,48.5,0,0,1,214,95a10.15,10.15,0,0,1-3.28-.48c-.91-.35-1.66-1-2.54-1.46-1.82-.88-3.79-1.42-5.55-2.41C200.3,89.37,201.75,88.06,201,85.67Z"/><path class="cls-5" d="M230.33,69.33c.69.2.92-1,1-1.38a28.56,28.56,0,0,1,2.38-4.55c.76-1.25,1.42-2.9,2.71-3.71.62-.39,1.6-.78,1.34-1.73-.2-.79-.94-1.29-1.48-1.9a4.25,4.25,0,0,1-.63-4.49c1.37-2.93,5.41-3,8-1.8a10.75,10.75,0,0,1,5.43,6.2,3.87,3.87,0,0,1-1.26,3.92,2.31,2.31,0,0,1-1.18.63,7,7,0,0,1-2.09-.06l-2.4-.51c-.56-.12-.84.13-1.24.5s-.78.87-1.24,1.23a21.2,21.2,0,0,0-2.59,2.42A21.57,21.57,0,0,0,234.28,68c-.65,1.15-1,3.1-2,4a6.77,6.77,0,0,1-1,.34C229.83,72.51,230.31,70.47,230.33,69.33Z"/><path class="cls-5" d="M210.89,74.25c-.62.35-1.12-.82-1.32-1.11a28.93,28.93,0,0,0-3.31-3.93c-1-1.06-2-2.52-3.45-3-.7-.24-1.73-.41-1.7-1.39a5.29,5.29,0,0,1,1-2.18,4.27,4.27,0,0,0-.36-4.52c-2-2.56-5.93-1.74-8.16,0a10.74,10.74,0,0,0-3.95,7.24,3.76,3.76,0,0,0,1.06,2.78,6.12,6.12,0,0,0,1.3,1,3,3,0,0,0,1.59.08,7.84,7.84,0,0,0,3.83-1.68,4.74,4.74,0,0,1,1.36.6l.65.43c.14.09.46.36.63.36a22.31,22.31,0,0,1,3.06,1.8,21.44,21.44,0,0,1,3.58,3.15c.89,1,1.69,2.79,2.84,3.45a6.7,6.7,0,0,0,1.06.11C212.07,77.24,211.17,75.36,210.89,74.25Z"/><path class="cls-6" d="M36.15,176.63s-6-70,179.27-93S409.6,108.8,412,122,36.15,176.63,36.15,176.63Z"/><path class="cls-7" d="M36.15,176.63s0-66.63,189.39-82.72C408,78.42,409.88,112.18,412,122Z"/><path class="cls-8" d="M244.67,205.33C106.09,224.18,52,220,37.33,184s104.67-76.67,196-83.33S402.67,90,412,122,411.33,182.67,244.67,205.33Z"/><path class="cls-9" d="M158.27,200.13s-16.5,2.88-23.87-17.79,31.43-39,95.48-46.35,101.32,1.91,105,13.29,0,28.07-38,33.4S182.38,202.31,158.27,200.13Z"/><path class="cls-6" d="M233.67,189.67c-77.6,5.21-84.5,7.5-89-9.5s30-27.5,82-37,96,0,102,11.5S293.17,185.67,233.67,189.67Z"/><path class="cls-10" d="M464.67,485.47H6s150.42-306.7,156.06-312.39,106.45-40.88,155.19-13.65Z"/><path class="cls-9" d="M68.67,173.67c4.76-4.46,11.46-6.45,17.5-8.44a19,19,0,0,1,6.56-1.07,17,17,0,0,1,4,.07c3.45.91,2.93,7.17,1.79,9.56-2.31,4.85-7.58,8.59-12.7,10a20.8,20.8,0,0,1-10.85.05c-2.83-.77-7.11-2.69-7.28-6.16a10.38,10.38,0,0,1,0-2C67.74,175,68.85,174.32,68.67,173.67Z"/><path class="cls-9" d="M133.83,139.68a6.1,6.1,0,0,1,2.49-4.41,28.26,28.26,0,0,1,5.14-3c1.75-.92,3.5-2,5.34-2.73a28.83,28.83,0,0,1,5.71-1.46,28.11,28.11,0,0,1,6.3-.92c2.47.11,4.32,2.83,4.77,5.12.63,3.25-2.08,7-4.56,8.92-4.14,3.2-9.3,4.45-14.44,4.66-2.17.09-5.14.42-7.19-.33a6,6,0,0,1-3.57-5.55A2.35,2.35,0,0,1,133.83,139.68Z"/><path class="cls-9" d="M120.28,193.68a25,25,0,0,0-5,1.09,10.68,10.68,0,0,0-3.78,1.57,2.68,2.68,0,0,0-1.07,1.92c-.06.67-.35,1,0,1.66A5,5,0,0,0,113.5,202a22.81,22.81,0,0,0,4.92.9,10.47,10.47,0,0,0,7.46-2,4.6,4.6,0,0,0,1.28-1.08c.11-.37.21-.73.3-1.09a5.76,5.76,0,0,0,.43-1c.23-1-.82-2-1.49-2.62a7.67,7.67,0,0,0-3.26-1.21A10.36,10.36,0,0,0,120.28,193.68Z"/><path class="cls-9" d="M227.77,115.06c-1.85.29-3.53,1-5.31,1.37s-3.61.76-5.12,1.95c-1.76,1.39-2.83,4.45-1,6.21a7.26,7.26,0,0,0,3.3,1.52A53.09,53.09,0,0,0,235,127.76c1.16,0,2.34-.32,3.49-.25a14.67,14.67,0,0,0,3.44-.11c3.57-.62,8.88-3.4,7-7.85a2.67,2.67,0,0,0-1.38-1.46A32.43,32.43,0,0,0,227.77,115.06Z"/><path class="cls-9" d="M313.12,114.92H313c-2,.21-4.43.24-6.17,1.28a4,4,0,0,0-2.07,3.62c.21,1.54,1.65,3.26,2.68,4.35,3.5,3.67,8.56,4.36,13.37,4.8a29.51,29.51,0,0,0,9.61-.3,9.58,9.58,0,0,0,5-2.5c1.05-1.08,2.09-2.11,2-3.71,0-1.19-1.65-2-2.56-2.61a33,33,0,0,0-20.68-5Z"/><path class="cls-9" d="M368.17,135.66a20.93,20.93,0,0,1,7.91-.93c3.43.14,7.39.9,10.12,3.11,1,.81,2.65,2.23,2,3.66-1.21,2.72-4.48,3.94-7.17,4.63-3.32.86-7.31,1-10.47-.47a10.34,10.34,0,0,1-3.18-1.6,6.06,6.06,0,0,1-1.68-2.4c-.33-1-.84-1.91-.5-3A4.52,4.52,0,0,1,368.17,135.66Z"/><path class="cls-9" d="M368.51,162.33a4.12,4.12,0,0,0-.69-.56,3.76,3.76,0,0,0-1.95-.58,5.35,5.35,0,0,1-1.75-.39,16.71,16.71,0,0,0-4.32-.79,14,14,0,0,0-3,.11c-.74.13-1.48.12-2.22.26-1.24.24-3.39,1.23-3.68,2.63a12.65,12.65,0,0,0,0,2.13,2.62,2.62,0,0,0,.68,2.1c2.44,2.38,6.21,2.68,9.39,2.69a11.83,11.83,0,0,0,4-.51c.77-.26,1.5-.65,2.25-1,1.58-.72,3-2.46,2.44-4.27A4.52,4.52,0,0,0,368.51,162.33Z"/><path class="cls-4" d="M216.11,70.17a3.31,3.31,0,0,0-2.76.26,1.86,1.86,0,0,0-1,2.26c.13.29.53.16.62-.08.18-.49.26-.83.74-1.1A2.84,2.84,0,0,1,215,71.2c.42,0,1,.28,1.3-.07A.61.61,0,0,0,216.11,70.17Z"/><path class="cls-4" d="M230.2,69.57a2.81,2.81,0,0,0-2.55-1.76,2.63,2.63,0,0,0-2.31,1.59c-.2.56.65.76.86.24a1.82,1.82,0,0,1,2-.78c.55.15,1,.93,1.45,1.26S230.39,69.9,230.2,69.57Z"/><path class="cls-4" d="M223.53,75c-.91.38-1.72,1-2.69.35-.36-.22-.79.32-.46.59,1,.81,2.91.92,3.64-.29C224.21,75.34,223.9,74.84,223.53,75Z"/><path class="cls-4" d="M191.93,61.48a5.9,5.9,0,0,0-1,4.27.37.37,0,0,0,.73,0,33.85,33.85,0,0,1,.9-4A.37.37,0,0,0,191.93,61.48Z"/><path class="cls-4" d="M193.27,59.91l-.2.12c-.48.3.18,1,.48.48l.12-.2A.3.3,0,0,0,193.27,59.91Z"/><path class="cls-4" d="M246.09,52.9a2.82,2.82,0,0,0-1.67-1c-.33,0-.37.4-.15.55a5.3,5.3,0,0,1,1.25,1.11,7.17,7.17,0,0,0,1,1.36.32.32,0,0,0,.54-.22A3,3,0,0,0,246.09,52.9Z"/><path class="cls-4" d="M247.63,55.69c-.24-.43-1-.12-.81.34a1.18,1.18,0,0,0,.25.4.38.38,0,0,0,.63-.16A.6.6,0,0,0,247.63,55.69Z"/><path class="cls-4" d="M209.7,69.05a14.39,14.39,0,0,0-6,9,.41.41,0,0,0,.79.22c1-3.54,3.29-6,5.74-8.56C210.55,69.37,210.12,68.78,209.7,69.05Z"/><path class="cls-4" d="M212.64,67.2a5.71,5.71,0,0,0-.87.49.46.46,0,0,0,.46.79,2.1,2.1,0,0,0,.86-.7A.4.4,0,0,0,212.64,67.2Z"/><path class="cls-10" d="M420.18,485.47a14.65,14.65,0,0,1-.74-1.78c-.69-2.07-1.91-3.38-2.83-5.27-.81-1.69-1.2-3.5-1.92-5.23-2.17-5.25-4.81-10.18-6.19-15.69-1.63-6.47-6.56-10.8-9.2-16.67q-4.89-10.89-9.64-21.84-9.51-21.9-18.48-44-17.91-44.26-33.63-89.37t-29.17-90.94c-1.47-5-2.48-9.82-5.36-14.16s-6.19-8.75-8.35-13.53a48,48,0,0,0-7.78-12.26,33,33,0,0,1-3.2-4.76c-31.12-3.09-67.82,4.49-92.75,11.91-3,7.57-6.18,15-9.32,22.51-1.32,3.14-2.77,6.08-4.28,9.08-1.59,3.16-1.9,7.35-2.68,10.79q-5.32,23.44-11.29,46.73Q151.45,297.51,137,343.38t-31.47,90.84c-1.6,4.23-2.11,8.7-3.32,13.09-1.4,5.06-2.75,10.14-3.71,15.3-1.48,7.62-2.85,15.23-4.21,22.86Z"/><path class="cls-10" d="M343.71,466.6c-5.55-8.77-10.47-17.66-13.56-27.59-2.11-6.78-3.45-13.48-5.71-20.22q-3.87-11.54-7.61-23.11-7.5-23.16-14.51-46.45-14-46.61-26.08-93.76-4.74-18.51-9.17-37.1-2.25-9.42-4.42-18.85c-1.18-5.15-1.43-10.11-2.78-15.27-2.9-11-4.47-22.49-10.23-32.35a15.26,15.26,0,0,0-1.1-1.65,290.16,290.16,0,0,0-32.84,5.25c.07,5.52.29,11,.89,16.47.4,3.67-.72,7.81-1.18,11.45q-.79,6.2-1.57,12.39-3.12,24.8-6.25,49.58-6.27,49.58-12.52,99.15l-12.51,99.15c-1.09,13.06-3.67,26-4.92,39a14.93,14.93,0,0,0,0,2.75h173.2C349,478.92,347.32,472.3,343.71,466.6Z"/><path class="cls-11" d="M257.12,32.51a75.07,75.07,0,0,0-33.24-.88,1.08,1.08,0,0,0,0,2.08c4.72,1.24,9.75.34,14.58.49,6,.18,12.16,2.38,18.21,1.69C258.49,35.68,259.14,33,257.12,32.51Z"/><path class="cls-11" d="M275.16,38.17a10.47,10.47,0,0,0-4.11-1.91c-1.81-.5-3.67-1.09-5.51-1.44a1.4,1.4,0,0,0-1.08,2.55A23.75,23.75,0,0,0,269,39.12a25.6,25.6,0,0,0,5.22,1.45A1.41,1.41,0,0,0,275.16,38.17Z"/><path class="cls-12" d="M85.73,177.63a15,15,0,0,1-10.09,1.57,1.17,1.17,0,0,0-.62,2.26c4.15,1.66,9.51,1.69,12.35-2.19C88.14,178.21,86.7,177.16,85.73,177.63Z"/><path class="cls-12" d="M91.33,175.45a9.48,9.48,0,0,0-1,.15,4.45,4.45,0,0,0-1,.5,1.42,1.42,0,0,0-.51,2,1.45,1.45,0,0,0,2,.52l.68-.32a3.21,3.21,0,0,0,.8-.72C92.85,176.83,92.46,175.32,91.33,175.45Z"/><path class="cls-12" d="M122,198.28a11.14,11.14,0,0,1-2.16,0,14.14,14.14,0,0,0-2.51-.1,1.19,1.19,0,0,0-.59,2.19,5.39,5.39,0,0,0,5.79-.11C123.33,199.73,123.11,198.14,122,198.28Z"/><path class="cls-12" d="M152.33,138.84a10.78,10.78,0,0,0-3.74.71,18,18,0,0,1-4.26.67,1.12,1.12,0,0,0,0,2.23,19.52,19.52,0,0,0,4.39-.23,10.32,10.32,0,0,0,4.2-1.22A1.17,1.17,0,0,0,152.33,138.84Z"/><path class="cls-12" d="M234.67,123.79c-2.88.33-5.8-.31-8.67-.53-1.41-.11-1.35,2,0,2.15,3.11.37,5.83,1.13,8.9.1C235.79,125.22,235.7,123.67,234.67,123.79Z"/><path class="cls-12" d="M242.06,123a13,13,0,0,1-1.39.09,1.23,1.23,0,0,0,0,2.46,3.84,3.84,0,0,0,2.18-.67A1,1,0,0,0,242.06,123Z"/><path class="cls-12" d="M322.59,125.38c-3.13-1.18-6.39-1-9.45-2.52a.94.94,0,0,0-1.14,1.47c2.45,2.8,6.92,2.83,10.33,3C323.51,127.37,323.58,125.75,322.59,125.38Z"/><path class="cls-12" d="M328.74,124.72a1.41,1.41,0,0,1-.71,0,1.39,1.39,0,0,0-1.67,1,1.36,1.36,0,0,0,.95,1.67,2.26,2.26,0,0,0,1.63-.21,2.65,2.65,0,0,0,.91-.94A1,1,0,0,0,328.74,124.72Z"/><path class="cls-12" d="M377.33,142.74a31.9,31.9,0,0,1-7-1.49,1.13,1.13,0,0,0-.87,2.05,11.65,11.65,0,0,0,8.15,1.26C378.68,144.35,378.3,142.84,377.33,142.74Z"/><path class="cls-12" d="M361.06,166.67c-2,.28-4-.54-6-.22-.82.14-.83,1.29-.22,1.67a8,8,0,0,0,7,.44C363,168.05,362.1,166.53,361.06,166.67Z"/><path class="cls-13" d="M186.16,130.32a36.78,36.78,0,0,0-4-4.54,45.1,45.1,0,0,1-4.4-6.07c-.73-1.13-2.79-.42-2.27,1a26.77,26.77,0,0,0,3.83,6.39c1.42,1.88,2.94,3.92,5,5.11A1.35,1.35,0,0,0,186.16,130.32Z"/><path class="cls-13" d="M198.09,129.36c-2.11-3.68-1.37-8.31-1.42-12.36a1.34,1.34,0,0,0-2.67,0c-.36,4.23-1.84,11.29,2.36,14.09C197.45,131.82,198.7,130.42,198.09,129.36Z"/><path class="cls-13" d="M125.72,153.72c-2.56-5.27-10-8-15-10.23-1.57-.71-3,1.56-1.38,2.35,2.52,1.26,5,2.54,7.46,4a60,60,0,0,1,7,5.38A1.23,1.23,0,0,0,125.72,153.72Z"/><path class="cls-13" d="M114.33,156.89a71.59,71.59,0,0,0-8.66-.48,1.26,1.26,0,0,0,0,2.51c2.89.07,5.77.39,8.66.19A1.11,1.11,0,0,0,114.33,156.89Z"/><path class="cls-13" d="M106.33,182.13c-4.63.41-9,2.87-13,5.11-1.43.8-.17,2.93,1.28,2.19,3.91-2,8-3.31,12-4.93C107.81,184,107.8,182,106.33,182.13Z"/><path class="cls-13" d="M109.38,188.28a62.15,62.15,0,0,0-8.67,5,1.24,1.24,0,0,0,1.25,2.15c2.8-1.63,5.62-3.24,8.26-5.14C111.14,189.61,110.6,187.77,109.38,188.28Z"/><path class="cls-13" d="M137.67,202.67a28.66,28.66,0,0,0-4.41,6.37,1.25,1.25,0,0,0,2,1.51c1.89-1.74,3.2-4.09,4.67-6.17C140.8,203.08,138.68,201.44,137.67,202.67Z"/><path class="cls-13" d="M267,108.4a1.18,1.18,0,0,0-2,1.2c1.94,3.51,2.85,7.46,4.78,10.93a1.06,1.06,0,0,0,2-.53C271.61,115.88,269.17,111.79,267,108.4Z"/><path class="cls-13" d="M282.1,108.67a77.77,77.77,0,0,1-1.42,8.3c-.28,1.43,1.81,2.55,2.5,1.06a25.48,25.48,0,0,0,2.06-9.36C285.36,106.63,282.25,106.67,282.1,108.67Z"/><path class="cls-13" d="M351.53,121.34c-1.2,1.79-2.46,3.55-3.74,5.29s-2.92,3.56-3.68,5.7c-.45,1.29,1.24,2,2.12,1.23a22.68,22.68,0,0,0,3.62-4.79c1.36-2,2.69-4,3.95-6.11C354.69,121.2,352.47,119.94,351.53,121.34Z"/><path class="cls-13" d="M361.18,126.93c-4.15,2.74-8.17,5.34-11.7,8.88-1,.95.32,2.71,1.46,1.9,3.88-2.76,7.95-5.27,11.88-8C364.54,128.56,362.94,125.76,361.18,126.93Z"/><path class="cls-13" d="M375.85,152.45c-3.13-2.34-7.75-2.52-11.52-2.35a1.23,1.23,0,0,0,0,2.46c3.77,0,7.07,1.24,10.73,1.76A1,1,0,0,0,375.85,152.45Z"/><path class="cls-13" d="M368.24,156.12c-.89-.36-1.8-.7-2.68-1.08a1.11,1.11,0,1,0-.86,2,11.53,11.53,0,0,0,3.3.84.9.9,0,0,0,.88-.67A.93.93,0,0,0,368.24,156.12Z"/><path class="cls-13" d="M349.91,177.47c-1.61-3.31-5.38-5.31-8.12-7.59-1.09-.91-2.67.62-1.58,1.57,1.3,1.15,2.67,2.21,4,3.32s2.71,2.64,4.05,4A1.06,1.06,0,0,0,349.91,177.47Z"/><path class="cls-13" d="M338.41,180c-.64-1.79-1.8-3.32-2.59-5-.71-1.56-3-.2-2.31,1.35a15.63,15.63,0,0,0,3,4.78C337.31,181.85,338.8,181.13,338.41,180Z"/><path class="cls-14" d="M140.86,173.1a8,8,0,0,0-4.19-1.51,1.09,1.09,0,0,0-.55,2,14.41,14.41,0,0,0,1.81.76,9.89,9.89,0,0,0,2.13.65A1,1,0,0,0,140.86,173.1Z"/><path class="cls-14" d="M141.29,180.27a6.87,6.87,0,0,0-3-.15,1.26,1.26,0,0,0,0,2.42,7,7,0,0,0,3-.14A1.11,1.11,0,0,0,141.29,180.27Z"/><path class="cls-14" d="M143,186.29a3,3,0,0,0-1.7.11,7.45,7.45,0,0,0-1.49.62,1.13,1.13,0,0,0-.52,1.28,1.17,1.17,0,0,0,1.4.8,11.67,11.67,0,0,0,1.28-.27,3.43,3.43,0,0,0,1.51-.73A1.09,1.09,0,0,0,143,186.29Z"/><path class="cls-14" d="M147.8,191.75c-.35.26-.72.47-1.05.75l-.35.19a3.42,3.42,0,0,1-.39.13,1.23,1.23,0,0,0-.85,1.5,1.25,1.25,0,0,0,1.5.86,4.79,4.79,0,0,0,1.5-.61,2.72,2.72,0,0,0,1.2-1.62C149.64,192.12,148.55,191.17,147.8,191.75Z"/><path class="cls-14" d="M145.06,165.71a2,2,0,0,0-1.09-1.36,2.55,2.55,0,0,0-1.95-.17,1.22,1.22,0,0,0-.88,1.15,1.2,1.2,0,0,0,.88,1.16,6,6,0,0,1,.81.21c-.19-.07.19.12.19.12a2.69,2.69,0,0,0,.69.24A1.1,1.1,0,0,0,145.06,165.71Z"/><path class="cls-14" d="M156.35,158.32a10,10,0,0,0-2.1-1.31,1.15,1.15,0,0,0-1.57,1.57,2.8,2.8,0,0,0,3.24,1.35C156.53,159.71,157,158.81,156.35,158.32Z"/><path class="cls-14" d="M167.47,153.87a2.26,2.26,0,0,0-1.33-1.05,3.84,3.84,0,0,0-1.47-.37.89.89,0,0,0-.76,1.33,3.33,3.33,0,0,0,3,1.45A.94.94,0,0,0,167.47,153.87Z"/><path class="cls-14" d="M181.56,149.81a2.51,2.51,0,0,0-.91-.95,4.13,4.13,0,0,1-.76-.75c-.88-1.13-2.83.37-2,1.53.67.92,1.76,2.11,3,1.69A1.06,1.06,0,0,0,181.56,149.81Z"/><path class="cls-14" d="M192.35,146.72c-.41-1.25-1.65-1.85-2.72-2.46s-2.62,1-1.51,2c.94.79,1.91,1.82,3.21,1.84A1.06,1.06,0,0,0,192.35,146.72Z"/><path class="cls-14" d="M207.72,142.93a8.46,8.46,0,0,1-.45-1.28,1.33,1.33,0,0,0-1.62-.92,1.35,1.35,0,0,0-.92,1.62,12.16,12.16,0,0,0,.37,1.47,3,3,0,0,0,1.2,1.55c.61.48,1.76.26,1.7-.7A4.89,4.89,0,0,0,207.72,142.93Z"/><path class="cls-6" d="M154.48,226.55l-.47-1.06a2.34,2.34,0,0,0-4,0c-.15.36-.31.71-.47,1.06a3,3,0,0,0,0,2.9,2.88,2.88,0,0,0,5,0A3,3,0,0,0,154.48,226.55Z"/><path class="cls-6" d="M181.33,192.26c-3.1,0-3.1,4.81,0,4.81S184.44,192.26,181.33,192.26Z"/><path class="cls-6" d="M156,277.92c-4.41,0-4.41,6.83,0,6.83S160.41,277.92,156,277.92Z"/><path class="cls-6" d="M144,287.45a2.07,2.07,0,0,0-4,0,2.36,2.36,0,0,0,.19,2.1,2.1,2.1,0,0,0,3.58,0A2.36,2.36,0,0,0,144,287.45Z"/><path class="cls-6" d="M90.67,348.33c-3.88,0-3.88,6,0,6S94.55,348.33,90.67,348.33Z"/><path class="cls-6" d="M100.67,361.77a1.56,1.56,0,0,0,0,3.12A1.56,1.56,0,0,0,100.67,361.77Z"/><path class="cls-6" d="M92.67,427.55c-4,0-4,6.23,0,6.23S96.69,427.55,92.67,427.55Z"/><path class="cls-6" d="M79.73,439.22a1.5,1.5,0,1,0,0,2.9c.68-.23,1.42-.63,1.42-1.45S80.41,439.45,79.73,439.22Z"/><path class="cls-6" d="M48.63,429A2.43,2.43,0,0,0,46,430.13l-.2.28a1.81,1.81,0,0,0,0,1.85l.2.27A2.38,2.38,0,1,0,48.63,429Z"/><path class="cls-6" d="M412.67,452.16a3.2,3.2,0,0,0-3.06,4,3.49,3.49,0,0,0,1.55,2.06,2.91,2.91,0,0,0,3,0,3.55,3.55,0,0,0,1.56-2.06A3.21,3.21,0,0,0,412.67,452.16Z"/><path class="cls-6" d="M430.87,464.34a3.06,3.06,0,0,0-1.61-1.17,2.15,2.15,0,0,0-1.73.23,2.24,2.24,0,0,0-.45,3.52,2.21,2.21,0,0,0,2.18.58,3.06,3.06,0,0,0,1.61-1.17A2,2,0,0,0,430.87,464.34Z"/><path class="cls-6" d="M372.39,375a2,2,0,0,0-1.72-1,2,2,0,0,0-1.41.59,2.09,2.09,0,0,0-.52,1.94c0,.16.05.32.07.48.28,1.84,3.43,1.84,3.71,0,0-.16.05-.32.07-.48A2.12,2.12,0,0,0,372.39,375Z"/><path class="cls-6" d="M390,384.91a1.09,1.09,0,0,0,0,2.18A1.09,1.09,0,0,0,390,384.91Z"/><path class="cls-6" d="M370,326.52c-3.63,0-3.63,5.63,0,5.63S373.63,326.52,370,326.52Z"/><path class="cls-6" d="M353.38,317.17a2.43,2.43,0,0,0-1.85-.19,1.76,1.76,0,0,0,0,3.37,2.43,2.43,0,0,0,1.85-.19A1.75,1.75,0,0,0,353.38,317.17Z"/><path class="cls-6" d="M349.86,260.81c-1.32-1.31-4-.82-4.39,1.16a3.21,3.21,0,0,0,0,1.31,2.63,2.63,0,1,0,4.41-2.47Z"/><path class="cls-6" d="M321.33,245.34c-2.57,0-2.57,4,0,4A2,2,0,0,0,321.33,245.34Z"/><path class="cls-6" d="M309.61,208c-.05-.18-.11-.35-.17-.53a2.2,2.2,0,0,0-4.22,0c-.05.17-.11.35-.16.53a3.05,3.05,0,0,0-.68,2.86,3.06,3.06,0,1,0,5.23-2.86Z"/><path class="cls-6" d="M313.33,182.83a1.84,1.84,0,0,0,0,3.67A1.84,1.84,0,0,0,313.33,182.83Z"/><path class="cls-6" d="M298.76,167.74a2.66,2.66,0,0,0-2.09-.81,2.41,2.41,0,1,0,0,4.81,2.7,2.7,0,0,0,2.09-.81A2.33,2.33,0,0,0,298.76,167.74Z"/><path class="cls-6" d="M169.21,181l-.18-.62a1.08,1.08,0,0,0-2.06,0l-.18.62a1.26,1.26,0,1,0,2.42,0Z"/><circle class="cls-9" cx="216" cy="11.33" r="6.81"/><path class="cls-12" d="M219.59,7.73a3.06,3.06,0,0,0-1.69-1.29,5.77,5.77,0,0,0-2.07-.2.93.93,0,0,0,0,1.86,4.11,4.11,0,0,1,1.24.31c.51.23,1,.4,1.53.6A.88.88,0,0,0,219.59,7.73Z"/><path class="cls-12" d="M221.69,10.87l-.17-.3c-.57-.93-2.31-.63-2.2.6,0,.11,0,.22,0,.33a1.25,1.25,0,1,0,2.33-.63Z"/><path class="cls-6" d="M206.67,221.25a1.92,1.92,0,0,0,0,3.83A1.92,1.92,0,0,0,206.67,221.25Z"/><path class="cls-6" d="M248.91,200.25a3.35,3.35,0,0,0-2.5-.33c-2.72.6-2.72,4.89,0,5.49a3.4,3.4,0,0,0,2.5-.32A2.82,2.82,0,0,0,248.91,200.25Z"/><path class="cls-6" d="M268.17,220.4c-2.93,0-2.93,4.54,0,4.54S271.09,220.4,268.17,220.4Z"/><path class="cls-6" d="M272.69,293.14a2.18,2.18,0,0,0-3.05,0,2.57,2.57,0,0,0-.78,2,1.85,1.85,0,0,0,1.81,1.8,2.52,2.52,0,0,0,2-.78A2.16,2.16,0,0,0,272.69,293.14Z"/><path class="cls-6" d="M209.17,295.17a2,2,0,0,0,0,4C211.74,299.16,211.74,295.17,209.17,295.17Z"/><path class="cls-6" d="M201.12,386.94a.59.59,0,0,0-.31-.09,2.56,2.56,0,0,0-1.86.24,2.4,2.4,0,0,0-.48,3.78,2.51,2.51,0,0,0,2.34.62.85.85,0,0,0,.31-.09,2.32,2.32,0,0,0,0-4.46Z"/><path class="cls-6" d="M153.93,444.54a2.35,2.35,0,0,0-4.29-.56,2.33,2.33,0,0,0,.36,2.85,2.24,2.24,0,0,0,3.33,0A2.31,2.31,0,0,0,153.93,444.54Z"/><path class="cls-6" d="M172.17,458.42c-2.9,0-2.9,4.49,0,4.49S175.06,458.42,172.17,458.42Z"/><path class="cls-6" d="M215.67,434.67a2,2,0,0,0,0,4C218.24,438.66,218.24,434.67,215.67,434.67Z"/><path class="cls-6" d="M298.67,430.43c-3.53,0-3.53,5.47,0,5.47S302.19,430.43,298.67,430.43Z"/><path class="cls-6" d="M353.48,452.31l-.45-.73a2.18,2.18,0,0,0-3.73,0l-.45.73a2.68,2.68,0,1,0,4.63,0Z"/><path class="cls-6" d="M321.4,380.21a3,3,0,0,0-1.62-1.26,1.68,1.68,0,0,0-.62-.08,2.59,2.59,0,0,0-1.23.11,2.85,2.85,0,0,0-1.95,1.95,2.76,2.76,0,0,0,1.28,3.14,3.31,3.31,0,0,0,1.54.44,3,3,0,0,0,2.09-.87A2.85,2.85,0,0,0,321.4,380.21Z"/><path class="cls-6" d="M261.17,377a1.67,1.67,0,0,0,0,3.33A1.67,1.67,0,0,0,261.17,377Z"/><path class="cls-6" d="M139.17,380.81a1.86,1.86,0,0,0,0,3.72A1.86,1.86,0,0,0,139.17,380.81Z"/><path class="cls-6" d="M74.11,191.38a10.57,10.57,0,0,0-.4,2.29,1,1,0,0,0,1.63.67,3.87,3.87,0,0,0,.92-2.67C76.36,190.44,74.3,190.16,74.11,191.38Z"/><path class="cls-6" d="M94.31,190.53a6.18,6.18,0,0,0-1.1-1.91,1.48,1.48,0,0,0-2.09,0,1.51,1.51,0,0,0,0,2.09l.08.09a1.28,1.28,0,0,0,.09.14l.16.27q.1.25.06.09c.16.4.36.88.47,1.19a1.26,1.26,0,0,0,1.19.91,1.23,1.23,0,0,0,1.18-.91A3.44,3.44,0,0,0,94.31,190.53Z"/><path class="cls-6" d="M107.64,180.36a8.87,8.87,0,0,0-1.41-.62,5.12,5.12,0,0,0-1.56-.11,1,1,0,0,0,0,2.08,12.38,12.38,0,0,1,2.25.35A.93.93,0,0,0,107.64,180.36Z"/><path class="cls-6" d="M136.46,152.31a1.34,1.34,0,0,0-2.63.36v.09a2,2,0,0,1-.07.26.83.83,0,0,0,0,.14l-.18.4a6.91,6.91,0,0,1-.43,1,1.23,1.23,0,0,0,1.69,1.68,3.1,3.1,0,0,0,1.54-1.49A3.68,3.68,0,0,0,136.46,152.31Z"/><path class="cls-6" d="M156.47,153.24a13.63,13.63,0,0,1-.72-1.87c-.44-1.37-2.58-.8-2.16.59s.87,3.16,2.12,4a.91.91,0,0,0,1.36-.78A4.89,4.89,0,0,0,156.47,153.24Z"/><path class="cls-6" d="M169.88,147.9a5.57,5.57,0,0,1-2.59-1.35c-.79-.82-2,.4-1.24,1.24a4.27,4.27,0,0,0,3.83,1.64C170.7,149.28,170.56,148.13,169.88,147.9Z"/><path class="cls-6" d="M217.25,133.13a9.1,9.1,0,0,0-1.4,3.54.83.83,0,0,0,1.4.58,25.19,25.19,0,0,0,1.84-3.05C219.82,133,217.91,131.92,217.25,133.13Z"/><path class="cls-6" d="M235.46,134.81a1.36,1.36,0,0,0-1.65-.94,1.39,1.39,0,0,0-.94,1.65l.22,1.57a2,2,0,0,0,1,1.64,1.26,1.26,0,0,0,1.68-.44C236.44,137.32,235.73,135.85,235.46,134.81Z"/><path class="cls-6" d="M254.12,134.27a4.08,4.08,0,0,0-1.07-2.37,14.73,14.73,0,0,0-1.86-1.48,2,2,0,0,0-2.45,3.18,13.42,13.42,0,0,1,1.35,1.26,5.31,5.31,0,0,0,1.82,1.11A1.53,1.53,0,0,0,254.12,134.27Z"/><path class="cls-6" d="M303.56,129.63a1.8,1.8,0,0,0-2.43.64,30.11,30.11,0,0,1-2,2.85,1.48,1.48,0,0,0,1.79,2.32,7.38,7.38,0,0,0,3.29-3.38A1.82,1.82,0,0,0,303.56,129.63Z"/><path class="cls-6" d="M317,134.67a1.37,1.37,0,0,0-2.73,0c-.07.62-.14,1.25-.19,1.88a5.22,5.22,0,0,0,.4,1.94,1.21,1.21,0,0,0,2.32,0,10,10,0,0,0,.39-1.94A9.23,9.23,0,0,0,317,134.67Z"/><path class="cls-6" d="M333.53,140.21A21.76,21.76,0,0,0,332.3,138c-.9-1.42-3.17-.11-2.27,1.33q.6.94,1.11,1.95a12.65,12.65,0,0,0,1.2,1.87c.5.68,1.88.57,1.78-.48A6.68,6.68,0,0,0,333.53,140.21Z"/><path class="cls-6" d="M364.94,147.34a1.55,1.55,0,0,0-2.1.55c-.23.52-.52,1-.77,1.53s-.51,1.12-.87,1.68c-.66,1,.59,2,1.53,1.53a5,5,0,0,0,2.91-3.56A1.57,1.57,0,0,0,364.94,147.34Z"/><path class="cls-6" d="M376.38,155.83a5.26,5.26,0,0,1-.21-1.66,1.51,1.51,0,0,0-1.5-1.51,1.53,1.53,0,0,0-1.51,1.51,3.7,3.7,0,0,0,.29,1.71,5.71,5.71,0,0,0,.83,1.18A1.27,1.27,0,0,0,376.38,155.83Z"/><path class="cls-6" d="M384.44,153.63a2.05,2.05,0,0,0-3.54,2.07c.71,1.22,1.2,2.58,2.47,3.34a1.61,1.61,0,0,0,2.33-.95C386.11,156.45,385.24,155,384.44,153.63Z"/><path class="cls-6" d="M348.84,172.17a1.18,1.18,0,1,0-2.35,0,1.92,1.92,0,0,1-.09.82,3.25,3.25,0,0,0-.34.67,2.28,2.28,0,0,1-.15.57c-.28.63.19,1.56,1,1.28a2.42,2.42,0,0,0,1.61-1.29A4,4,0,0,0,348.84,172.17Z"/><path class="cls-6" d="M356.67,174.92a1.75,1.75,0,0,0-1.75,1.75,4.94,4.94,0,0,0,.28,1.79,1.69,1.69,0,0,0,1.47,1,1.72,1.72,0,0,0,1.47-1,5.16,5.16,0,0,0,.28-1.79A1.76,1.76,0,0,0,356.67,174.92Z"/><path class="cls-6" d="M369.54,174.52a3.74,3.74,0,0,0-1.89-1.09,1.8,1.8,0,0,0-1,3.48,1.52,1.52,0,0,1,.2.06l0,0s.08.11,0,0h0a1.78,1.78,0,0,0,.59.57,2.43,2.43,0,0,0,1.06.36,1.46,1.46,0,0,0,1.05-.45,2.12,2.12,0,0,0,.54-1.43A2.49,2.49,0,0,0,369.54,174.52Z"/><text class="cls-15" transform="matrix(1, -0.1, 0.1, 1, 123.01, 339.33)">404</text><text class="cls-16" transform="translate(116.68 373.56) rotate(-2.63)">error</text><text class="cls-17" transform="translate(198.25 391.55)">page not found</text></g></g></svg>